<?xml version="1.0" standalone="no"?><!DOCTYPE svg PUBLIC "-//W3C//DTD SVG 1.1//EN" "http://www.w3.org/Graphics/SVG/1.1/DTD/svg11.dtd"><svg t="1703302857634" class="icon" viewBox="0 0 1025 1024" version="1.1" xmlns="http://www.w3.org/2000/svg" p-id="2481" xmlns:xlink="http://www.w3.org/1999/xlink" width="200.1953125" height="200"><path d="M651.8 775.5h-20.3v-527h178V305c0 19.3 15.7 35 35 35s35-15.7 35-35v-91.5c0-19.3-15.7-35-35-35h-248c-19.3 0-35 15.7-35 35V477H340.8V236.1c0-32-26-58-58-58H58c-32 0-58 26-58 58v551.8c0 32 26 58 58 58h224.8c32 0 58-26 58-58V547h220.7v263.5c0 19.3 15.7 35 35 35h55.3c19.3 0 35-15.7 35-35s-15.7-35-35-35z m-381 0.4H70V248.1h200.8v527.8z" p-id="2482"></path><path d="M990 651.5h-89v-89c0-19.3-15.7-35-35-35s-35 15.7-35 35v89h-89c-19.3 0-35 15.7-35 35s15.7 35 35 35h89v89c0 19.3 15.7 35 35 35s35-15.7 35-35v-89h89c19.3 0 35-15.7 35-35s-15.7-35-35-35z" p-id="2483"></path></svg>